<!-- English version of references.svg, written by npm run translate from source 9252a3dbd96c8403. Adjust the layout here if a label does not fit; the file is only written again when references.svg changes. -->
<svg xmlns="http://www.w3.org/2000/svg" width="100%" height="262" style="font-family: var(--font-text, 'Noto Serif SC', 'Songti SC', serif); overflow: visible">
  <!-- Three user documents and one shared region record. Inside each document the one-to-many fields
       (positions, education) hang below it as a small tree; region_id leaves the document and points at
       a record that all three share (many-to-one). Documents are placed in percentages and drawn in px
       from their own top-left corner (a nested svg per document), so the figure works from phone width
       up. No viewBox: text keeps its size. Colors are the site's tokens, with light-theme fallbacks. -->

  <!-- references, drawn first so the region record covers nothing and the arrowheads sit on its edge -->
  <g style="stroke: var(--ink, #1B222B); stroke-width: 1">
    <line x1="15%" y1="167" x2="15%" y2="223" />
    <line x1="50%" y1="167" x2="50%" y2="223" />
    <line x1="85%" y1="167" x2="85%" y2="223" />
  </g>
  <g style="fill: var(--ink, #1B222B)">
    <svg x="15%" y="231" overflow="visible"><path d="M-3.5 -8H3.5L0 0Z" /></svg>
    <svg x="50%" y="231" overflow="visible"><path d="M-3.5 -8H3.5L0 0Z" /></svg>
    <svg x="85%" y="231" overflow="visible"><path d="M-3.5 -8H3.5L0 0Z" /></svg>
  </g>

  <!-- document 1: users/251, two positions, two schools (the book's example) -->
  <svg x="0%" y="0" overflow="visible">
    <rect x="0.5" y="0.5" width="30%" height="176" style="fill: none; stroke: var(--rule-strong, #B1B8BB)" />
    <line x1="0.5" y1="30.5" x2="30%" y2="30.5" style="stroke: var(--rule, #DADDD8)" />
    <text x="12" y="20" style="font-family: var(--font-mono, monospace); font-size: 12.5px; font-weight: 500; fill: var(--ink, #1B222B)">users/251</text>
    <g style="font-family: var(--font-mono, monospace); font-size: 12.5px; fill: var(--muted, #5D6672)">
      <text x="12" y="52">positions</text>
      <text x="12" y="110">education</text>
      <text x="15%" y="160" text-anchor="middle" style="fill: var(--ink, #1B222B)">region_id</text>
    </g>
    <g style="stroke: var(--rule-strong, #B1B8BB); stroke-width: 1">
      <path d="M18.5 57V75.5H26M18.5 64.5H26" style="fill: none" />
      <path d="M18.5 115V133.5H26M18.5 122.5H26" style="fill: none" />
    </g>
    <g style="fill: var(--muted, #5D6672)">
      <rect x="26" y="61.5" width="44" height="6" rx="1" />
      <rect x="26" y="72.5" width="44" height="6" rx="1" />
      <rect x="26" y="119.5" width="44" height="6" rx="1" />
      <rect x="26" y="130.5" width="44" height="6" rx="1" />
    </g>
  </svg>

  <!-- document 2: users/252, one position, one school -->
  <svg x="35%" y="0" overflow="visible">
    <rect x="0.5" y="0.5" width="30%" height="176" style="fill: none; stroke: var(--rule-strong, #B1B8BB)" />
    <line x1="0.5" y1="30.5" x2="30%" y2="30.5" style="stroke: var(--rule, #DADDD8)" />
    <text x="12" y="20" style="font-family: var(--font-mono, monospace); font-size: 12.5px; font-weight: 500; fill: var(--ink, #1B222B)">users/252</text>
    <g style="font-family: var(--font-mono, monospace); font-size: 12.5px; fill: var(--muted, #5D6672)">
      <text x="12" y="52">positions</text>
      <text x="12" y="110">education</text>
      <text x="15%" y="160" text-anchor="middle" style="fill: var(--ink, #1B222B)">region_id</text>
    </g>
    <g style="stroke: var(--rule-strong, #B1B8BB); stroke-width: 1">
      <path d="M18.5 57V64.5H26" style="fill: none" />
      <path d="M18.5 115V122.5H26" style="fill: none" />
    </g>
    <g style="fill: var(--muted, #5D6672)">
      <rect x="26" y="61.5" width="44" height="6" rx="1" />
      <rect x="26" y="119.5" width="44" height="6" rx="1" />
    </g>
  </svg>

  <!-- document 3: users/253, three positions, one school -->
  <svg x="70%" y="0" overflow="visible">
    <rect x="0.5" y="0.5" width="30%" height="176" style="fill: none; stroke: var(--rule-strong, #B1B8BB)" />
    <line x1="0.5" y1="30.5" x2="30%" y2="30.5" style="stroke: var(--rule, #DADDD8)" />
    <text x="12" y="20" style="font-family: var(--font-mono, monospace); font-size: 12.5px; font-weight: 500; fill: var(--ink, #1B222B)">users/253</text>
    <g style="font-family: var(--font-mono, monospace); font-size: 12.5px; fill: var(--muted, #5D6672)">
      <text x="12" y="52">positions</text>
      <text x="12" y="110">education</text>
      <text x="15%" y="160" text-anchor="middle" style="fill: var(--ink, #1B222B)">region_id</text>
    </g>
    <g style="stroke: var(--rule-strong, #B1B8BB); stroke-width: 1">
      <path d="M18.5 57V86.5H26M18.5 64.5H26M18.5 75.5H26" style="fill: none" />
      <path d="M18.5 115V122.5H26" style="fill: none" />
    </g>
    <g style="fill: var(--muted, #5D6672)">
      <rect x="26" y="61.5" width="44" height="6" rx="1" />
      <rect x="26" y="72.5" width="44" height="6" rx="1" />
      <rect x="26" y="83.5" width="44" height="6" rx="1" />
      <rect x="26" y="119.5" width="44" height="6" rx="1" />
    </g>
  </svg>

  <!-- the shared region record, outside every document -->
  <rect x="0.5" y="231.5" width="100%" height="30" style="fill: none; stroke: var(--ink, #1B222B)" />
  <text x="12" y="251" style="font-family: var(--font-mono, monospace); font-size: 12.5px; fill: var(--muted, #5D6672)">regions/us:91</text>
  <text x="62%" y="251.5" text-anchor="middle" style="font-size: 14px; font-weight: 500; fill: var(--ink, #1B222B)">Greater Seattle Area</text>
</svg>
